<?xml version="1.0" encoding="UTF-8"?>
<svg id="Ebene_1" data-name="Ebene 1" xmlns="http://www.w3.org/2000/svg" xmlns:xlink="http://www.w3.org/1999/xlink" viewBox="0 0 740.4 306.4">
  <defs>
    <clipPath id="clippath">
      <rect x="49.7" y="54.2" width="604.9" height="201.3" style="fill: none;"/>
    </clipPath>
  </defs>
  <g id="Ebene_1-2" data-name="Ebene 1">
    <path d="M454.2,95.4h-23.6v124.5h23.6s0-124.5,0-124.5ZM415.6,219.9v-15h-46.6v-109.5h-23.6v124.5h70.2ZM280.1,219.9v-57.7h44.2v-14.3h-44.2v-38.3h46.7v-14.3h-70.4v124.5h23.6l.1.1Z" style="fill: #0069b4;"/>
    <g style="clip-path: url(#clippath);">
      <g>
        <path d="M618.7,219.9v-26.5h6.8v-2.3h-17v2.3h6.8v26.5h3.5-.1ZM600.9,209c0,3.8,0,9.2-6,9.2s-6.1-5.4-6.1-9.2v-17.9h-3.5v18c0,4.3,0,11.3,9.4,11.3s9.6-6.9,9.6-11.3v-18h-3.5v17.9h.1ZM574.4,219.9v-26.5h6.8v-2.3h-17v2.3h6.8v26.5h3.5-.1ZM559.6,191.1h-3.5v28.8h3.5v-28.8ZM544.9,219.9v-26.5h6.8v-2.3h-17v2.3h6.8v26.5h3.5-.1ZM515.6,219.5c.7.2,3.3.9,6.7.9,5.7,0,10.2-2.5,10.2-8.2s-1.5-5.1-4.7-7.2c-3.8-2.5-9.2-3.7-9.2-7.9s2-4.2,5.1-4.2,5.6,1.2,6.9,1.8v-3.3c-1.2-.3-4-.7-6.2-.7-5.5,0-9.1,2.6-9.1,7.3s2.3,5.8,4.8,7.1c4.3,2.3,8.7,3.8,8.7,7.8s-2.3,5.1-5.9,5.1-5.7-1.3-7.2-2v3.6l-.1-.1ZM509.2,219.9v-28.8h-3.1v24.4h0l-11.9-24.4h-4.1v28.8h3.1v-24.6h0l12,24.6h4.1-.1ZM481.9,191.1h-3.5v28.8h3.5v-28.8Z" style="fill: #3c3c3b;"/>
        <path d="M621.6,156.8v-11.2h3.1c2.4,0,6.1.7,6.1,5.4s-4.7,5.9-7.3,5.9h-1.9v-.1ZM635.3,172.2l-1.5-7.3c-.7-3.5-1.2-6.3-5.7-7h0c2.2-.3,6.5-2.1,6.5-6.9s-5.2-7.6-10-7.6h-6.4v28.8h3.5v-13h1.6c5.2,0,6.3,1.7,7.4,7.1l1.2,5.9h3.6-.2ZM612.3,172.2v-2.5h-10.9v-11.4h9.9v-2.4h-9.9v-10.3h10.5v-2.3h-13.9v28.8h14.3v.1ZM593.7,172.2v-2.5h-10.1v-26.4h-3.5v28.8h13.6v.1ZM564.9,172.2v-13.9h9.9v-2.4h-9.9v-10.3h10.5v-2.3h-14v28.8h3.5v.1ZM546.3,172.2v-13.9h9.9v-2.4h-9.9v-10.3h10.5v-2.3h-14v28.8h3.5v.1ZM537,172.2v-2.5h-10.9v-11.4h9.9v-2.4h-9.9v-10.3h10.4v-2.3h-13.9v28.8h14.3l.1.1ZM505.4,170.4c-5.8,0-6.9-7.2-6.9-12.2s1-13.2,6.9-13.2,7,7,7,13.2-1.2,12.2-7,12.2M505.6,172.6c7.9,0,10.5-7.1,10.5-14.7s-2.6-15.1-10.5-15.1-10.8,7.2-10.8,15.1,3,14.7,10.8,14.7M491.9,172.2v-2.5h-10.1v-26.4h-3.5v28.8h13.6v.1Z" style="fill: #3c3c3b;"/>
        <path d="M654.6,124.4v-28.8h-3.5v12.7h-11.5v-12.7h-3.5v28.8h3.5v-13.8h11.5v13.8s3.5,0,3.5,0ZM630.1,119.7c-1.5,1.2-3.1,2.7-6.7,2.7-6.3,0-8.3-6.6-8.3-13.5s.8-11.7,6.8-11.7,5.2,3.5,5.2,6.1h4.1c0-4.4-3.2-8.3-9.1-8.3-8.8,0-10.7,8.9-10.7,14.3s2.7,15.4,11.6,15.4,5.7-1.1,7.1-1.9v-3.3.2ZM604.7,95.6h-3.5v28.8h3.5s0-28.8,0-28.8ZM581.3,109.1v-11.2h3.1c2.4,0,6.1.7,6.1,5.4s-4.7,5.9-7.3,5.9h-1.9v-.1ZM594.9,124.4l-1.5-7.3c-.7-3.5-1.2-6.3-5.7-7h0c2.2-.3,6.5-2.1,6.5-6.9s-5.2-7.6-10-7.6h-6.4v28.8h3.5v-13h1.6c5.2,0,6.3,1.7,7.4,7.1l1.2,5.9h3.6-.2ZM555.6,121.9v-24.1h2.2c6.5,0,9.7,2.3,9.7,12.4s-2.5,11.7-9.7,11.7h-2.2ZM556.9,124.4c8.8,0,14.3-2.2,14.3-14.6s-4.7-14.3-13.9-14.3h-5.2v28.8h4.8v.1ZM546.3,124.4v-2.5h-10.9v-11.4h9.9v-2.4h-9.9v-10.3h10.4v-2.3h-13.9v28.8h14.3l.1.1ZM523.9,95.6h-3.5v28.8h3.5s0-28.8,0-28.8ZM500.4,109.1v-11.2h3.1c2.4,0,6.1.7,6.1,5.4s-4.7,5.9-7.3,5.9h-1.9v-.1ZM514.1,124.4l-1.5-7.3c-.7-3.5-1.2-6.3-5.7-7h0c2.2-.3,6.5-2.1,6.5-6.9s-5.2-7.6-10-7.6h-6.4v28.8h3.5v-13h1.6c5.2,0,6.3,1.7,7.4,7.1l1.2,5.9h3.6-.2ZM481.8,124.4v-13.9h9.9v-2.4h-9.9v-10.3h10.5v-2.3h-14v28.8h3.5v.1Z" style="fill: #3c3c3b;"/>
      </g>
    </g>
    <polygon points="127.9 54.2 99.8 141.9 217.3 89.8 127.9 54.2" style="fill: #6096d0;"/>
    <polygon points="221.4 96.2 102.4 149 210.3 219.6 221.4 96.2" style="fill: #98b5e0;"/>
    <polygon points="100.3 255.4 205.9 225.7 97.2 154.6 100.3 255.4" style="fill: #0069b4;"/>
    <polygon points="49.7 145.3 91.2 143.8 118.8 57.8 49.7 145.3" style="fill: #0069b4;"/>
  </g>
</svg>